<svg xmlns="http://www.w3.org/2000/svg" xmlns:xlink="http://www.w3.org/1999/xlink" viewBox="0 0 677.75 363.19"><defs><style>.cls-1{fill:url(#Nueva_muestra_de_degradado_2);}.cls-2{fill:url(#Nueva_muestra_de_degradado_2-2);}.cls-3{fill:url(#Nueva_muestra_de_degradado_2-3);}.cls-10,.cls-4{fill:#1172a9;}.cls-4{stroke:#1172a9;stroke-miterlimit:10;stroke-width:6.77px;}.cls-5{fill:url(#Nueva_muestra_de_degradado_2-4);}.cls-6{fill:url(#Nueva_muestra_de_degradado_2-5);}.cls-7{fill:url(#Nueva_muestra_de_degradado_2-6);}.cls-8{fill:url(#Nueva_muestra_de_degradado_2-7);}.cls-9{fill:url(#Nueva_muestra_de_degradado_2-8);}.cls-11{fill:#c4d33a;}.cls-12{fill:url(#Nueva_muestra_de_degradado_4);}</style><linearGradient id="Nueva_muestra_de_degradado_2" x1="204.79" y1="340.4" x2="219.45" y2="340.4" gradientUnits="userSpaceOnUse"><stop offset="0" stop-color="#74b300"/><stop offset="1" stop-color="#b0cb40"/></linearGradient><linearGradient id="Nueva_muestra_de_degradado_2-2" x1="233.37" y1="333.34" x2="252.83" y2="333.34" xlink:href="#Nueva_muestra_de_degradado_2"/><linearGradient id="Nueva_muestra_de_degradado_2-3" x1="262.97" y1="328.4" x2="285.8" y2="328.4" xlink:href="#Nueva_muestra_de_degradado_2"/><linearGradient id="Nueva_muestra_de_degradado_2-4" x1="541.51" y1="254.22" x2="558.83" y2="271.55" xlink:href="#Nueva_muestra_de_degradado_2"/><linearGradient id="Nueva_muestra_de_degradado_2-5" x1="542.01" y1="224.1" x2="574.67" y2="224.1" xlink:href="#Nueva_muestra_de_degradado_2"/><linearGradient id="Nueva_muestra_de_degradado_2-6" x1="524.65" y1="178.67" x2="564.46" y2="178.67" xlink:href="#Nueva_muestra_de_degradado_2"/><linearGradient id="Nueva_muestra_de_degradado_2-7" x1="477.7" y1="145.5" x2="524.65" y2="145.5" xlink:href="#Nueva_muestra_de_degradado_2"/><linearGradient id="Nueva_muestra_de_degradado_2-8" x1="381.75" y1="148.06" x2="461.37" y2="148.06" xlink:href="#Nueva_muestra_de_degradado_2"/><linearGradient id="Nueva_muestra_de_degradado_4" y1="181.6" x2="677.75" y2="181.6" gradientUnits="userSpaceOnUse"><stop offset="0" stop-color="#0d75a8"/><stop offset="0.7" stop-color="#1579a3"/><stop offset="1" stop-color="#b0cb40"/></linearGradient></defs><g id="Capa_2" data-name="Capa 2"><g id="Capa_1-2" data-name="Capa 1"><path class="cls-1" d="M219.35,332.16l-6.4-12.8a.93.93,0,0,0-1.66,0l-6.4,12.8a.93.93,0,0,0,.83,1.35h4.48v28.43h3.72V333.51h4.6A.93.93,0,0,0,219.35,332.16Z"/><path class="cls-2" d="M252.7,322.41l-8.49-17a1.24,1.24,0,0,0-2.21,0l-8.5,17a1.24,1.24,0,0,0,1.11,1.79h5.94v37.74h4.94V324.2h6.11A1.23,1.23,0,0,0,252.7,322.41Z"/><path class="cls-3" d="M285.64,315.58l-10-19.93a1.45,1.45,0,0,0-2.59,0l-10,19.93a1.45,1.45,0,0,0,1.3,2.1h7v44.26h5.79V317.68h7.16A1.45,1.45,0,0,0,285.64,315.58Z"/><path class="cls-4" d="M120.91,244.75H72.73q-1.74,11.4,3,17.59t15,6.2q11.53,0,22.54-7.6l-1.81,10.27q-10.15,6.53-25,6.53-14.46,0-21.08-9.3t-3.66-26.16q2.82-15.93,13.61-26t24.2-10q13.39,0,19.2,8.67T121.92,239Zm-9.56-9.27q1.61-9.45-2-14.73t-11.57-5.26A21,21,0,0,0,83.71,221a31.24,31.24,0,0,0-9.22,14.46Z"/><path class="cls-4" d="M126.18,272.27l2.32-13.19a20.34,20.34,0,0,0,4.8,3.6,37.58,37.58,0,0,0,6.19,2.7,47.37,47.37,0,0,0,6.73,1.7,38.42,38.42,0,0,0,6.43.59q10.32,0,16.1-3.83a16,16,0,0,0,7.05-11,11.91,11.91,0,0,0-.52-6.73,14.79,14.79,0,0,0-3.77-5.23,36,36,0,0,0-6.3-4.53q-3.72-2.17-8-4.57-4.55-2.53-8.42-5.13a30.81,30.81,0,0,1-6.52-5.73,18.83,18.83,0,0,1-3.78-7.1,20.77,20.77,0,0,1-.2-9.3,25.61,25.61,0,0,1,4.87-11.36,31.94,31.94,0,0,1,8.94-8,41,41,0,0,1,11.45-4.67A52,52,0,0,1,176,179q14.13,0,20,3.4L193.73,195q-7.44-5.86-20.7-5.86a37,37,0,0,0-7.46.77,24.56,24.56,0,0,0-7,2.49,18.8,18.8,0,0,0-5.46,4.47,13.93,13.93,0,0,0-3,6.66,12.84,12.84,0,0,0,.25,6.34,12.17,12.17,0,0,0,3.17,4.86,31.46,31.46,0,0,0,5.75,4.27c2.31,1.37,5,2.89,8,4.53a100.41,100.41,0,0,1,8.79,5.33,34.24,34.24,0,0,1,7,6.2,21.65,21.65,0,0,1,4.17,7.53,19.88,19.88,0,0,1,.37,9.46,28,28,0,0,1-4.88,12,29.36,29.36,0,0,1-8.87,8,39,39,0,0,1-11.61,4.43,62.73,62.73,0,0,1-13.17,1.37,49.63,49.63,0,0,1-5.53-.37c-2.18-.24-4.39-.6-6.61-1.06a48.61,48.61,0,0,1-6.26-1.74A16.33,16.33,0,0,1,126.18,272.27Z"/><path class="cls-4" d="M260.81,207.89l-45.35,79.18q-12.14,21.19-27.33,21.19a23.72,23.72,0,0,1-7-.86l1.73-9.8a18.42,18.42,0,0,0,6.25,1.2q8.26,0,14.14-9.86L211,276l-14.64-68.12H208.5l9.2,52.52c.1.67.26,2.4.48,5.2h.4q.61-1.61,2.23-5.07l28.67-52.65Z"/><path class="cls-4" d="M253.4,273.67l2.07-11.73a27.64,27.64,0,0,0,18.5,6.6q14.38,0,16.08-9.6a7.53,7.53,0,0,0-.41-4.63A9.45,9.45,0,0,0,286.9,251a20.6,20.6,0,0,0-4.47-2.64q-2.62-1.16-5.67-2.43a64,64,0,0,1-7.32-3.63,18.51,18.51,0,0,1-5-4.13,12.19,12.19,0,0,1-2.55-5.23,17.65,17.65,0,0,1,.05-6.87,19.11,19.11,0,0,1,3.69-8.5,25.43,25.43,0,0,1,7-6.2,33.24,33.24,0,0,1,9-3.76,39.87,39.87,0,0,1,9.92-1.27,35.45,35.45,0,0,1,15.32,3.07l-1.95,11.06q-6.66-4.92-16.46-4.93a21.43,21.43,0,0,0-5.65.7,16.29,16.29,0,0,0-4.58,2,11.61,11.61,0,0,0-3.27,3,9.37,9.37,0,0,0-1.65,3.9,8.56,8.56,0,0,0,.18,4.46,7.51,7.51,0,0,0,2.27,3.2,17.3,17.3,0,0,0,4.08,2.54q2.46,1.13,5.63,2.46a67.88,67.88,0,0,1,7.5,3.57,21.73,21.73,0,0,1,5.41,4.13,12.83,12.83,0,0,1,3,5.3,16.22,16.22,0,0,1,.11,7.13,19.73,19.73,0,0,1-3.79,8.8,24.84,24.84,0,0,1-7,6.19,32.7,32.7,0,0,1-9.25,3.67,45,45,0,0,1-10.41,1.2Q260.41,277.74,253.4,273.67Z"/><path class="cls-4" d="M324.54,266.28h-.27L317,307.53H306.07l17.57-99.64h10.93l-2.12,12h.27q10.45-13.59,26-13.6,13.19,0,19,9.17T380.75,240q-3,17.13-13.16,27.42A33.26,33.26,0,0,1,343,277.74Q329.71,277.74,324.54,266.28Zm4.58-27.53-1.68,9.53q-1.49,8.46,3,14.36t12.92,5.9a22.07,22.07,0,0,0,16.9-7.6q7-7.59,9.36-21.12,2-11.4-2.12-17.86t-13.12-6.47a23.11,23.11,0,0,0-16.49,6.63A29.36,29.36,0,0,0,329.12,238.75Z"/><path class="cls-4" d="M416.68,277.74q-15.14,0-22.48-9.56t-4.56-25.36q3-17.2,14.14-26.86t27.09-9.67q15.27,0,22.17,9.4t4,26.06q-2.88,16.33-13.84,26.16T416.68,277.74Zm11.77-62.25a24.81,24.81,0,0,0-17.92,7.16q-7.39,7.17-9.62,19.77-2.15,12.12,2.83,19.12t15.36,7q10.59,0,17.5-6.86t9.14-19.53q2.26-12.79-2.22-19.73T428.45,215.49Z"/><path class="cls-4" d="M461.3,273.67l2.07-11.73a27.63,27.63,0,0,0,18.49,6.6q14.4,0,16.09-9.6a7.68,7.68,0,0,0-.41-4.63A9.56,9.56,0,0,0,494.8,251a20.6,20.6,0,0,0-4.47-2.64q-2.62-1.16-5.67-2.43a64,64,0,0,1-7.32-3.63,18.72,18.72,0,0,1-5-4.13,12.29,12.29,0,0,1-2.54-5.23,17.83,17.83,0,0,1,0-6.87,19.24,19.24,0,0,1,3.7-8.5,25.43,25.43,0,0,1,7-6.2,33.24,33.24,0,0,1,9-3.76,39.87,39.87,0,0,1,9.92-1.27,35.45,35.45,0,0,1,15.32,3.07l-2,11.06q-6.66-4.92-16.46-4.93a21.43,21.43,0,0,0-5.65.7,16.29,16.29,0,0,0-4.58,2,11.61,11.61,0,0,0-3.27,3,9.37,9.37,0,0,0-1.65,3.9,8.56,8.56,0,0,0,.18,4.46,7.57,7.57,0,0,0,2.26,3.2,17.38,17.38,0,0,0,4.09,2.54q2.46,1.13,5.63,2.46a67.88,67.88,0,0,1,7.5,3.57,21.48,21.48,0,0,1,5.4,4.13,12.74,12.74,0,0,1,3,5.3,16.22,16.22,0,0,1,.11,7.13,19.73,19.73,0,0,1-3.79,8.8,24.84,24.84,0,0,1-7.05,6.19,32.7,32.7,0,0,1-9.25,3.67,45,45,0,0,1-10.41,1.2Q468.31,277.74,461.3,273.67Z"/><circle class="cls-5" cx="550.17" cy="262.89" r="12.25"/><circle class="cls-6" cx="558.34" cy="224.1" r="16.33"/><circle class="cls-7" cx="544.56" cy="178.67" r="19.9"/><circle class="cls-8" cx="501.18" cy="145.5" r="23.48"/><path class="cls-9" d="M449.27,113.87l-27.71,28.57-38.7-9.33a39.81,39.81,0,1,0,66.41-19.24Z"/><path class="cls-10" d="M419.61,104.73a40.58,40.58,0,0,0-9.85,1.84s-19,5.94-22.7,25l34.11,8.22Z"/><path class="cls-10" d="M421.26,139.69l24.37-25.12a31.28,31.28,0,0,0-10.17-7Z"/><polygon class="cls-11" points="422.11 135.51 420.42 97.68 437.41 100.88 422.11 135.51"/><path class="cls-12" d="M484,363.19l-.13-18.37c9.09-.07,18.25-.06,27.11-.05,28.82,0,56,.06,84.34-2.24h.13c25.19-1.68,48.6-20.93,58.28-47.93,6.69-20.12,10.66-49-8.3-72.47a70,70,0,0,0-18.29-15.44,78.12,78.12,0,0,0-11.58-5.77,38.88,38.88,0,0,0-4.51-1.32,44.37,44.37,0,0,1-8.89-3c-3.52-1.77-14.26-7.13-14.26-18.43,0-37.39-7.92-69.23-24.2-97.33a108.75,108.75,0,0,0-35.65-35.65C483.51,19.52,403.8,6.36,343.7,32.47,310.31,47,289.51,71,281.87,104c-.67,2.87-2.06,8.85-7.65,12.09-5.37,3.11-10.88,1.62-13.53.9-3.34-.9-6.71-1.87-10-2.81-9-2.61-18.33-5.3-27.32-6.51-18.14-2.13-33.08-2.66-47,1.65a99,99,0,0,0-19.26,9.29,110.56,110.56,0,0,0-37.16,39A115.72,115.72,0,0,0,113.83,170c-.51,1.18-1,2.66-1.48,4.21a44.59,44.59,0,0,1-4.1,9.86c-5.26,8.6-14.72,10.59-21.63,12-1.62.34-3.16.67-4.4,1a216.59,216.59,0,0,0-23,7.57c-14.9,6.16-25.53,15.43-31.6,27.56-14.73,29.46-11.67,63.38,7.6,84.46A77.25,77.25,0,0,0,52,329.34c31.21,17.48,69.68,15.4,106.89,13.38l8.16-.43.94,18.35-8.11.43c-38,2.06-81,4.39-116.86-15.7a95.72,95.72,0,0,1-20.91-15.76l-.27-.28C-2.71,302.68-7,260.38,11.17,224.07c8.1-16.2,21.9-28.42,41-36.32a229.89,229.89,0,0,1,25-8.25c1.88-.54,3.81-.95,5.68-1.34,3.84-.81,8.61-1.81,9.73-3.64a30.26,30.26,0,0,0,2.28-5.88c.61-1.89,1.23-3.84,2.07-5.81a138.8,138.8,0,0,1,7.13-14.35A129.05,129.05,0,0,1,147.45,103a118.5,118.5,0,0,1,23-11.08l.32-.1c18.08-5.65,37.05-4.49,54.85-2.4l.14,0c10.36,1.38,20.38,4.28,30.06,7.08,2.75.79,5.59,1.61,8.36,2.37,9.09-37.92,34-66.7,72.19-83.27C366,2.76,402-2.3,440.63,1c36,3,70.33,13.12,96.78,28.38l.28.17A126.66,126.66,0,0,1,579.4,71.22l.15.26c17.67,30.43,26.67,66.12,26.76,106.09a16,16,0,0,0,4.11,2.58,29,29,0,0,0,5.21,1.63,54,54,0,0,1,6.77,2.06A97.16,97.16,0,0,1,636.73,191a88.29,88.29,0,0,1,23,19.59c19.16,23.73,23.11,54.83,11.41,89.93l-.07.18c-12.07,33.81-41.93,58-74.32,60.17-29,2.35-57.89,2.32-85.77,2.29C502.18,363.13,493.06,363.12,484,363.19Z"/></g></g></svg>